# xmcd
#
# Track frame offsets:
#  150
#  14512
#  31675
#  47462
#  63263
#  84430
#  98341
#  114287
#  132614
#  145702
#
# Disc length: 2149 seconds
#
# Revision: 0
# Processed by: cddbd v1.4PL0 Copyright (c) Steve Scherf et al.
# Submitted via: AltoMP3_Maker 3.0
#
DISCID=7108630a
DTITLE=Cyril MacPhee - Back on Track
DYEAR=1900
DGENRE=
TTITLE0=Thanks to You, Thanks to Me
TTITLE1=Dance a Reel
TTITLE2=Picture on the Wall
TTITLE3=In the Long Run
TTITLE4=Cape Breton's Crying
TTITLE5=Years Flow By
TTITLE6=Civil Conversation
TTITLE7=Mrs. Farthington
TTITLE8=Home Again
TTITLE9=Nova Scotia to Me
EXTD=
EXTT0=
EXTT1=
EXTT2=
EXTT3=
EXTT4=
EXTT5=
EXTT6=
EXTT7=
EXTT8=
EXTT9=
PLAYORDER=
